<svg id="Layer_1" data-name="Layer 1" xmlns="http://www.w3.org/2000/svg" viewBox="0 0 278.16 256.4"><defs><style>.cls-1{fill:none;stroke:#000;stroke-miterlimit:10;stroke-width:15px;}</style></defs><path class="cls-1" d="M693.64,355.06c14.82-1,92.25-6.75,92.25-6.75s23.38-57.36,34.4-85.09c3-1.15,36.81,82.58,36.81,82.58s90.63,8.55,90.86,9.56c.1.42-68.49,60.67-68.49,60.67s22.56,86.7,20.25,88.52-78.9-45.86-78.9-45.86-75.94,47.8-78.72,45.85c-2.62-1.84,20.65-87.93,19.19-90.33C760.49,412.51,695.19,356.7,693.64,355.06Z" transform="translate(-677.3 -255.7)"/><path d="M821,263.71c-.31-.37-.55-.55-.71-.49-11,27.73-34.4,85.09-34.4,85.09s-77.43,5.72-92.25,6.75c1.55,1.64,66.85,57.45,67.65,59.15,1.46,2.4-21.81,88.49-19.19,90.33,2.78,1.95,78.72-45.85,78.72-45.85l.18.11Z" transform="translate(-677.3 -255.7)"/></svg>